<svg width="333" height="277" viewBox="0 0 333 277" fill="none" xmlns="http://www.w3.org/2000/svg">
<circle cx="108.878" cy="108.878" r="108.378" transform="matrix(0.978932 0.204187 0.312635 0.949873 0 25.0957)" fill="#666666" stroke="black"/>
<circle cx="108.878" cy="108.878" r="108.378" transform="matrix(0.978932 0.204187 0.312635 0.949873 26.8262 0)" fill="#333333" stroke="black"/>
<circle cx="71.1881" cy="71.1881" r="70.6881" transform="matrix(0.978932 0.204187 0.312635 0.949873 75.4648 43.8916)" fill="#E5EEFF" stroke="black"/>
<circle cx="39.0789" cy="39.0789" r="38.5789" transform="matrix(0.978932 0.204187 0.312635 0.949873 116.883 80.8086)" fill="#B2CDFF" stroke="black"/>
<circle cx="12.648" cy="12.648" r="12.148" transform="matrix(0.978932 0.204187 0.312635 0.949873 151.258 111.013)" fill="#0059FF" stroke="black"/>
<path d="M318.724 38.3328L318.606 38.8029L319.072 38.9356L331.279 42.4113L325.95 45.488L313.233 41.9047L316.488 29.0999L321.817 26.0231L318.724 38.3328Z" fill="#99BDFF" stroke="black"/>
<path d="M312.327 42.0252L312.209 42.4953L312.675 42.628L324.883 46.1037L319.554 49.1804L306.837 45.5971L310.092 32.7923L315.421 29.7155L312.327 42.0252Z" fill="#99BDFF" stroke="black"/>
<path d="M305.931 45.7176L305.813 46.1876L306.279 46.3204L318.486 49.796L313.157 52.8728L300.44 49.2895L303.695 36.4847L309.024 33.4079L305.931 45.7176Z" fill="#99BDFF" stroke="black"/>
<rect x="325.229" y="35.9127" width="163.013" height="1.72903" rx="0.864516" transform="rotate(150 325.229 35.9127)" fill="#E5EEFF" stroke="black"/>
<path d="M175.004 104.056L169.941 122.828C169.614 124.04 170.334 125.288 171.548 125.611L190.336 130.612C192.808 131.27 195.451 130.914 197.666 129.636C202.267 126.979 203.871 121.08 201.214 116.479C199.936 114.265 197.829 112.651 195.358 111.993L193.152 111.406C193.071 111.384 193.023 111.301 193.045 111.22L193.64 109.017C194.305 106.548 193.961 103.916 192.683 101.702C190.026 97.1009 184.116 95.5405 179.515 98.1968C177.3 99.4757 175.67 101.587 175.004 104.056Z" fill="#4C8BFF" stroke="black"/>
<path d="M174.854 104.457L171.371 118.551L175.307 108.07C178.799 98.7746 192.554 101.111 192.78 111.038C192.782 111.142 192.93 111.16 192.957 111.06L193.428 109.314C194.094 106.846 193.744 104.203 192.465 101.989C189.82 97.407 183.947 95.8131 179.365 98.4587C177.108 99.7615 175.479 101.927 174.854 104.457Z" fill="#0059FF"/>
<path d="M175.004 104.056L169.941 122.828C169.614 124.04 170.334 125.288 171.548 125.611L190.336 130.612C192.808 131.27 195.451 130.914 197.666 129.636C202.267 126.979 203.871 121.08 201.214 116.479C199.936 114.265 197.829 112.651 195.358 111.993L193.152 111.406C193.071 111.384 193.023 111.301 193.045 111.22L193.64 109.017C194.305 106.548 193.961 103.916 192.683 101.702C190.026 97.1009 184.116 95.5405 179.515 98.1968C177.3 99.4757 175.67 101.587 175.004 104.056Z" stroke="black"/>
</svg>
